<svg width="24" height="24" viewBox="0 0 24 24" fill="none" xmlns="http://www.w3.org/2000/svg">
<path d="M16.95 9.01C19.97 9.749 22 11.133 22 12.724C22 15.091 17.52 17 12 17C6.48 17 2 15.091 2 12.724C2 11.134 4.04 9.739 7.07 9M15 17L17 20M8.5 17L7 20M12 14H12.01M7 13H7.01M17 13H17.01M7 9C7 10.105 9.239 11 12 11C14.761 11 17 10.105 17 9V8.965C17 6.223 14.761 4 12 4C9.239 4 7 6.223 7 8.965V9Z" stroke="white" stroke-opacity="0.5" stroke-width="1.6" stroke-linecap="round" stroke-linejoin="round"/>
</svg>
